<?xml version="1.0" standalone="no"?>
<!DOCTYPE svg PUBLIC "-//W3C//DTD SVG 20010904//EN"
 "http://www.w3.org/TR/2001/REC-SVG-20010904/DTD/svg10.dtd">
<svg version="1.0" xmlns="http://www.w3.org/2000/svg"
 width="194.000000pt" height="259.000000pt" viewBox="0 0 194.000000 259.000000"
 preserveAspectRatio="xMidYMid meet">

<g transform="translate(0.000000,259.000000) scale(0.100000,-0.100000)"
fill="#000000" stroke="none">
<path d="M0 1455 l0 -1135 213 0 c116 0 226 -4 242 -9 29 -9 28 -9 -15 -10
-33 -1 -41 -4 -29 -11 10 -6 29 -6 50 0 19 6 64 10 101 10 37 0 70 5 73 10 4
7 13 7 26 0 13 -7 19 -7 19 0 0 5 9 10 21 10 11 0 18 -4 14 -10 -9 -15 187 9
203 25 3 2 -8 9 -23 15 l-28 11 20 22 c11 12 23 30 26 40 8 22 53 23 65 1 8
-14 10 -14 26 2 11 11 15 25 12 40 -5 18 -2 24 11 25 16 0 15 2 -2 9 -11 5
-14 9 -6 9 8 1 -1 12 -20 24 -19 13 -33 29 -32 35 2 6 -14 16 -35 23 -20 6
-42 16 -49 21 -7 5 -22 8 -35 5 -20 -4 -20 -4 5 -6 25 -1 27 -3 16 -22 -9 -17
-13 -19 -20 -8 -5 8 -9 10 -9 4 -1 -11 -29 35 -30 48 0 9 62 9 85 1 13 -5 14
-8 3 -15 -9 -6 -9 -9 -1 -9 6 0 14 4 18 9 3 5 17 -1 31 -14 14 -13 42 -29 61
-36 27 -9 32 -14 22 -21 -11 -8 -11 -9 1 -5 18 4 21 42 3 42 -6 0 -15 3 -19 8
-4 4 0 7 9 7 10 0 17 5 17 10 0 6 -7 10 -15 10 -8 0 -15 4 -15 9 0 4 37 12 83
17 71 8 82 12 85 29 2 17 9 20 52 17 29 -2 50 -9 51 -15 0 -7 4 -3 9 8 6 14 9
-1 11 -50 1 -38 4 -56 6 -40 2 17 7 41 10 55 6 21 8 16 13 -25 l7 -50 1 50 2
50 48 -4 c26 -2 52 -7 57 -11 6 -4 36 -15 68 -24 32 -9 67 -26 77 -36 11 -11
26 -21 33 -21 45 -6 -125 -17 -258 -18 -165 -1 -178 -4 -223 -47 -16 -16 -16
-17 12 -47 17 -18 22 -33 18 -54 -8 -45 -21 -55 -71 -51 l-46 3 -3 -183 -2
-182 373 0 373 0 -4 133 c-4 154 2 204 23 187 10 -8 15 -8 20 1 5 7 25 10 56
7 l49 -5 0 1133 0 1134 -970 0 -970 0 0 -1135z m950 905 c-10 -6 -11 -10 -2
-10 6 0 12 -3 12 -7 0 -5 -20 -8 -45 -8 -36 0 -45 3 -45 18 0 14 9 17 48 17
34 0 43 -3 32 -10z m80 -2 c0 -9 4 -8 10 2 9 13 11 13 19 0 13 -19 12 -20 -42
-23 -39 -2 -47 0 -47 15 0 13 8 18 30 18 17 0 30 -5 30 -12z m-527 -136 c32
-19 33 -29 8 -61 -17 -22 -21 -23 -51 -12 -40 13 -80 14 -80 2 0 -5 23 -12 52
-16 100 -14 140 -94 79 -156 -26 -26 -36 -29 -91 -29 -55 0 -140 28 -140 46 0
3 9 19 20 34 20 28 21 28 55 14 39 -16 85 -19 85 -5 0 5 -24 15 -54 21 -82 17
-117 65 -91 126 8 19 15 34 17 34 2 0 21 7 43 15 46 17 105 11 148 -13z m248
-5 c46 -31 60 -85 35 -132 -20 -36 -50 -53 -106 -59 -32 -3 -35 -6 -38 -40 -3
-36 -4 -36 -48 -36 l-44 0 0 145 0 145 84 0 c70 0 88 -4 117 -23z m257 3 c54
-33 66 -107 24 -153 -16 -18 -15 -21 11 -68 l27 -49 -55 0 c-54 0 -55 1 -75
40 -11 22 -25 40 -30 40 -6 0 -10 -18 -10 -40 l0 -40 -45 0 -45 0 0 145 0 145
83 0 c64 0 89 -4 115 -20z m652 -16 c0 -29 -11 -48 -57 -102 l-56 -67 56 -3
57 -3 0 -39 0 -40 -115 0 -115 0 0 40 c0 40 0 41 94 148 l19 22 -96 0 -97 0 0
-105 0 -105 -45 0 -45 0 0 104 0 105 -37 3 c-35 3 -39 6 -44 38 -4 19 -7 -29
-8 -107 l-1 -143 -45 0 -45 0 0 145 0 145 290 0 290 0 0 -36z m-1290 -388 c0
-20 -5 -23 -40 -23 -35 0 -40 3 -40 22 0 20 5 23 40 23 35 1 40 -2 40 -22z
m171 1 l0 -22 9 23 c11 27 19 28 36 5 13 -17 13 -17 14 0 0 20 40 24 41 5 0
-10 2 -10 6 0 6 15 43 16 43 1 0 -8 5 -8 15 1 18 15 45 6 45 -15 0 -20 -28
-31 -42 -17 -8 8 -15 9 -25 1 -9 -9 -17 -8 -28 1 -8 7 -15 8 -15 3 0 -13 -172
-14 -187 -1 -7 6 -13 7 -13 2 0 -5 -11 -10 -25 -10 -20 -2 -25 3 -25 20 0 21
5 22 75 23 70 1 75 0 76 -20z m379 -42 c0 -10 11 -16 33 -17 l32 -1 -31 -4
c-27 -4 -30 -7 -26 -28 3 -17 -1 -27 -12 -31 -22 -8 -22 -8 -30 49 -7 43 -6
47 13 47 12 0 21 -7 21 -15z m120 -4 c0 -4 -7 -16 -15 -27 -8 -12 -11 -24 -7
-28 3 -4 0 -11 -8 -16 -12 -7 -12 -12 -2 -22 10 -10 15 -10 22 2 8 13 13 12
32 -7 17 -18 19 -23 7 -23 -9 0 -19 3 -22 6 -9 10 -160 5 -197 -6 -35 -10 -36
-8 -13 20 19 21 49 28 37 8 -5 -8 -2 -9 10 -5 10 4 37 7 60 7 42 0 42 1 38 30
-3 18 0 30 7 30 6 0 10 3 10 8 -5 28 3 40 21 35 11 -3 20 -8 20 -12z m-422
-13 c8 -18 11 -19 11 -5 1 21 39 23 48 2 3 -9 2 -19 -1 -23 -11 -10 -116 -9
-116 1 0 5 -6 4 -14 -2 -8 -7 -30 -11 -48 -9 -25 2 -34 8 -36 26 -2 12 1 22 7
22 6 0 11 -7 11 -15 0 -8 5 -15 10 -15 6 0 10 7 10 15 0 17 71 18 82 1 5 -7 8
-4 8 7 0 24 15 21 28 -5z m-288 1 c0 -5 -4 -8 -9 -4 -5 3 -12 1 -16 -5 -3 -5
1 -10 9 -10 9 0 16 -5 16 -11 0 -20 -35 -4 -38 19 -3 17 2 22 17 22 12 0 21
-5 21 -11z m120 -10 c0 -10 -4 -21 -10 -24 -5 -3 -10 -1 -10 6 0 8 -4 8 -12 2
-7 -6 -26 -9 -43 -9 -23 1 -31 6 -33 23 -3 19 1 21 52 21 47 -1 56 -4 56 -19z
m-10 -64 c0 -8 5 -15 10 -15 6 0 10 7 10 15 0 8 5 15 11 15 5 0 7 -4 4 -10 -3
-5 -2 -10 4 -10 5 0 12 6 15 13 3 8 9 6 20 -7 12 -15 16 -16 16 -5 0 21 89 24
97 2 3 -8 1 -18 -5 -22 -5 -3 -81 -6 -169 -5 -152 1 -158 2 -161 22 -3 19 2
21 72 21 60 0 76 -3 76 -14z m668 -66 c19 -30 8 -34 -12 -4 -9 14 -13 25 -9
25 5 0 14 -9 21 -21z m-118 -41 c0 -19 -2 -20 -11 -8 -9 12 -10 11 -6 -7 6
-28 -12 -35 -44 -17 -34 19 -58 18 -33 -1 18 -14 18 -16 2 -28 -11 -9 -14 -18
-8 -27 6 -10 4 -23 -5 -37 -17 -25 -15 -54 4 -77 11 -14 11 -16 -3 -16 -15 0
-15 -2 1 -25 10 -13 26 -27 36 -31 10 -3 16 -8 13 -11 -3 -3 -19 0 -36 5 -17
6 -29 8 -26 4 3 -5 -23 -8 -57 -8 -44 1 -61 5 -60 14 2 6 -5 12 -15 12 -13 0
-18 10 -20 45 -2 32 1 45 10 45 9 0 9 3 -2 10 -25 15 -2 24 35 13 19 -6 35 -8
35 -3 0 10 -26 20 -51 20 -21 0 -26 16 -6 23 9 4 8 8 -3 16 -11 9 -4 10 30 5
25 -4 42 -3 38 1 -4 4 -1 20 7 35 13 26 13 29 -8 44 l-22 17 24 -12 c17 -8 26
-8 34 0 19 19 55 12 84 -16 l28 -28 4 25 c2 20 16 39 29 40 1 0 2 -10 2 -22z
m50 13 c0 -20 -26 -57 -38 -53 -9 3 -8 11 3 33 15 27 35 39 35 20z m54 -42
c-2 -18 0 -28 6 -24 6 3 10 1 10 -6 0 -7 6 -4 14 7 8 10 10 21 5 22 -5 2 -9
10 -9 18 0 22 39 -6 42 -31 5 -31 32 -25 36 8 3 25 7 28 35 25 24 -2 32 -8 33
-23 1 -11 2 -26 3 -33 1 -10 5 -9 17 3 12 11 20 13 29 5 14 -12 95 -3 95 11 0
5 -5 9 -11 9 -6 0 -4 7 5 15 8 8 26 15 40 15 22 0 26 -4 26 -29 0 -23 5 -30
22 -33 26 -4 33 -47 10 -64 -11 -8 -13 -22 -7 -62 4 -29 11 -52 16 -52 5 0 9
6 9 14 0 8 5 18 10 21 19 11 10 -55 -9 -74 -11 -11 -21 -30 -23 -43 -4 -31
-45 -35 -44 -4 1 13 -9 25 -26 34 -33 16 -36 28 -7 37 17 6 19 12 14 33 -9 35
-10 36 -34 22 -12 -6 -21 -7 -21 -2 0 5 10 14 23 20 20 11 19 11 -11 6 l-34
-6 22 25 c12 14 29 23 36 20 22 -8 16 15 -7 28 -18 9 -19 13 -8 21 16 10 -124
3 -142 -7 -5 -4 -9 -14 -8 -23 6 -42 -13 -131 -29 -137 -15 -6 -14 -8 6 -16
32 -12 27 -26 -10 -27 -34 -1 -108 49 -108 73 0 26 23 28 41 4 10 -13 20 -22
22 -19 3 3 7 38 10 78 l5 72 -32 -1 c-17 0 -25 -3 -19 -6 10 -3 10 -10 2 -24
-5 -11 -14 -17 -18 -14 -12 7 -21 -19 -21 -59 0 -45 -19 -66 -65 -71 -30 -4
-35 -3 -20 4 11 5 15 10 8 10 -22 2 -35 39 -23 62 7 11 14 33 16 47 3 15 9 31
15 37 5 5 9 14 9 20 0 5 -4 3 -10 -5 -13 -21 -23 -6 -11 17 6 10 15 31 21 46
5 16 14 25 20 22 5 -3 10 -1 10 4 0 6 6 11 14 11 9 0 12 -10 10 -31z m-289 11
l20 -9 -20 0 c-11 0 -27 4 -35 9 -13 9 -13 10 0 9 8 0 24 -4 35 -9z m-388 -33
c-2 -6 -22 -12 -45 -12 -22 -1 -38 3 -36 7 3 4 1 8 -5 8 -5 0 -11 -5 -13 -12
-3 -7 -12 -9 -22 -5 -33 13 -7 23 59 24 45 1 65 -2 62 -10z m33 -8 c0 -5 -7
-9 -15 -9 -9 0 -12 6 -9 15 6 15 24 11 24 -6z m33 8 c3 -8 -1 -14 -8 -14 -7 0
-11 6 -8 14 3 7 6 13 8 13 2 0 5 -6 8 -13z m137 -1 c0 -6 4 -5 9 2 7 11 9 11
14 0 6 -17 -24 -20 -35 -4 -6 8 -8 7 -8 -1 0 -8 -17 -11 -50 -11 -32 1 -50 6
-50 14 0 8 19 12 60 12 37 -1 60 -5 60 -12z m180 -6 c0 -5 -8 -10 -17 -10 -15
0 -16 2 -3 10 19 12 20 12 20 0z m135 -46 c1 -39 -1 -43 -12 -28 -14 20 -16
34 -7 58 11 29 19 17 19 -30z m-523 1 c5 -6 8 -5 8 3 0 8 11 11 30 10 17 -1
30 -8 30 -15 0 -15 -21 -13 -32 2 -5 7 -11 6 -15 0 -5 -6 -39 -10 -78 -9 -80
2 -78 1 -71 13 7 11 119 8 128 -4z m158 0 c0 -15 -62 -14 -67 0 -2 6 13 10 32
11 20 0 35 -4 35 -11z m334 -58 c3 -18 0 -27 -8 -27 -13 0 -18 24 -10 49 6 19
12 11 18 -22z m-514 8 c0 -5 -24 -11 -53 -12 -28 -1 -46 1 -38 4 9 4 10 7 2
13 -7 3 11 6 39 6 27 0 50 -5 50 -11z m50 2 c0 -8 3 -8 8 -2 10 14 100 14 105
0 6 -14 -116 -16 -125 -1 -5 8 -8 7 -8 -2 0 -7 -4 -10 -10 -7 -16 10 -11 21
10 22 11 1 20 -4 20 -10z m497 -73 c-3 -3 -12 -4 -19 -1 -8 3 -5 6 6 6 11 1
17 -2 13 -5z m167 -193 c5 -8 4 -16 -5 -22 -11 -7 -9 -9 6 -10 l20 0 -20 -9
-20 -9 20 0 c13 -1 16 -4 8 -9 -8 -5 -3 -11 15 -20 19 -9 23 -9 14 0 -7 7 -12
19 -12 27 0 11 4 10 14 -5 8 -10 12 -29 9 -41 -4 -17 -1 -23 12 -23 11 0 15
-7 13 -22 -2 -14 -10 -22 -18 -20 -10 1 -8 -3 5 -13 17 -14 18 -17 5 -25 -8
-5 -10 -10 -5 -11 6 0 -1 -5 -15 -9 -29 -9 -352 -11 -394 -1 -31 6 -45 39 -23
53 9 6 9 8 0 8 -17 0 -17 72 -1 88 16 16 17 112 1 144 -7 15 -13 36 -13 47 0
18 2 19 28 5 15 -7 37 -14 48 -14 41 0 84 -12 78 -22 -4 -7 5 -8 26 -3 23 5
30 4 26 -4 -4 -6 -25 -11 -47 -11 -40 0 -52 -13 -23 -24 9 -3 25 -6 36 -6 10
0 27 -8 36 -17 16 -16 16 -16 0 -10 -14 5 -18 1 -18 -18 0 -16 6 -25 15 -25
11 0 9 -6 -7 -22 l-22 -22 24 -7 c23 -6 23 -7 4 -8 -17 -1 -23 -9 -26 -35 -4
-34 -3 -34 39 -38 44 -3 73 9 66 29 -2 6 1 14 6 18 6 3 11 11 11 16 0 6 -4 8
-9 4 -5 -3 -12 -1 -16 5 -4 6 14 11 47 11 51 2 52 2 13 8 l-40 6 0 52 c0 54 5
59 44 53 10 -1 10 3 -3 16 -9 9 -15 23 -12 30 3 9 -1 14 -12 14 -15 0 -15 2
-2 10 12 8 12 10 -5 11 -11 0 -2 6 20 13 l40 12 5 -66 c3 -36 9 -71 14 -79z
m-77 83 c-3 -3 -12 -4 -19 -1 -8 3 -5 6 6 6 11 1 17 -2 13 -5z m-30 -70 c-3
-3 -12 -4 -19 -1 -8 3 -5 6 6 6 11 1 17 -2 13 -5z m358 -185 c-28 -11 -63 -11
-69 0 -4 5 15 9 41 8 33 0 41 -3 28 -8z m-235 -94 c0 -10 -10 -15 -27 -15 -14
0 -23 -3 -19 -7 4 -4 15 -8 23 -8 36 0 20 -20 -17 -22 -37 -2 -40 -1 -31 16 6
10 8 21 5 24 -12 12 8 27 37 27 19 0 29 -5 29 -15z m-285 -15 c7 -23 -1 -40
-20 -40 -16 0 -26 25 -19 45 9 21 32 19 39 -5z m959 2 c3 -5 -1 -9 -9 -9 -8 0
-12 4 -9 9 3 4 7 8 9 8 2 0 6 -4 9 -8z m-816 -39 c-14 -17 -54 -17 -61 1 -9
24 12 35 43 23 22 -8 27 -14 18 -24z m-73 -53 c8 7 15 7 19 1 7 -11 48 -2 58
13 4 6 8 -1 8 -15 0 -28 -34 -47 -46 -27 -4 6 -10 5 -15 -3 -7 -11 -9 -9 -10
6 0 11 -3 14 -6 8 -9 -25 -33 -14 -32 15 1 17 3 21 6 9 4 -14 8 -15 18 -7z
m118 -3 c6 4 24 8 39 10 22 2 28 -1 28 -17 0 -21 -24 -28 -35 -10 -3 6 -12 10
-18 10 -7 0 -6 -4 3 -10 11 -8 9 -9 -12 -8 -23 2 -28 7 -27 28 1 17 3 19 6 7
3 -10 9 -14 16 -10z m-155 -12 c3 -17 1 -17 -7 -5 -6 8 -11 10 -11 5 0 -6 -9
-11 -20 -12 -14 -1 -20 4 -20 18 0 29 53 23 58 -6z m2 -35 c12 -8 11 -10 -7
-10 -13 0 -23 5 -23 10 0 13 11 13 30 0z m190 0 c0 -5 -15 -10 -32 -9 -31 1
-32 1 -8 9 35 11 40 11 40 0z m-392 -30 c23 -13 44 -31 47 -41 4 -10 21 -19
45 -23 45 -7 54 -26 13 -26 -21 0 -24 -3 -15 -12 19 -19 14 -29 -8 -16 -17 11
-22 10 -36 -10 -8 -12 -35 -32 -59 -43 l-43 -20 -37 25 c-21 15 -44 26 -51 26
-7 0 -14 5 -16 12 -3 7 -13 2 -26 -12 -17 -19 -25 -21 -34 -12 -16 16 -38 15
-38 -2 0 -7 6 -19 14 -25 13 -11 12 -15 -3 -29 -21 -20 -57 -42 -70 -42 -5 0
-16 17 -25 38 -9 20 -24 49 -33 63 -17 27 -17 27 38 83 79 81 116 97 214 93
62 -2 90 -9 123 -27z m295 23 c-13 -2 -33 -2 -45 0 -13 2 -3 4 22 4 25 0 35
-2 23 -4z m824 -30 c-3 -10 -5 -4 -5 12 0 17 2 24 5 18 2 -7 2 -21 0 -30z
m-667 7 c0 -15 -7 -20 -25 -20 -24 0 -34 18 -18 33 15 15 43 7 43 -13z m-353
-12 c-3 -8 -6 -5 -6 6 -1 11 2 17 5 13 3 -3 4 -12 1 -19z m273 2 c0 -9 -151
-13 -174 -4 -34 13 -4 19 83 16 50 -2 91 -7 91 -12z m-240 -146 c0 -2 -7 -4
-15 -4 -8 0 -15 4 -15 10 0 5 7 7 15 4 8 -4 15 -8 15 -10z m-289 -11 c13 -16
12 -17 -3 -4 -17 13 -22 21 -14 21 2 0 10 -8 17 -17z m-6 -23 c3 -5 1 -10 -4
-10 -6 0 -11 5 -11 10 0 6 2 10 4 10 3 0 8 -4 11 -10z m915 -53 c10 16 11 16
6 -5 -4 -20 -2 -22 12 -10 9 7 20 18 24 23 5 6 8 5 8 -2 0 -7 -8 -21 -18 -31
-17 -17 -17 -19 5 -35 19 -15 22 -15 17 -2 -3 8 -10 15 -16 15 -16 0 1 17 22
23 17 4 19 3 9 -9 -9 -11 -7 -14 12 -14 22 -1 23 -2 6 -14 -16 -13 -16 -14 5
-20 22 -6 22 -7 -7 -21 -16 -9 -22 -13 -12 -10 9 2 17 0 17 -5 0 -6 11 -10 24
-10 14 0 28 -5 32 -12 4 -6 3 -8 -3 -5 -6 4 -49 1 -95 -5 -69 -9 -98 -9 -149
3 l-64 14 49 5 c44 4 51 8 57 33 4 16 3 25 -2 21 -5 -3 -9 -14 -9 -25 0 -14
-7 -19 -26 -19 -14 0 -23 4 -19 10 3 5 13 6 23 3 9 -3 4 6 -13 22 l-30 27 30
-6 c28 -6 29 -5 11 9 -16 12 -17 18 -8 27 9 9 12 9 12 0 0 -7 5 -12 11 -12 6
0 9 7 5 15 -3 8 -1 15 4 15 13 0 31 -36 22 -44 -3 -4 2 -4 13 0 11 5 14 9 7
12 -7 2 -12 16 -12 30 1 25 2 26 14 9 14 -18 15 -18 26 0z m-120 -207 c0 -27
-4 -50 -10 -50 -5 0 -10 23 -10 50 0 28 5 50 10 50 6 0 10 -22 10 -50z m200 0
c0 -27 -4 -50 -10 -50 -5 0 -10 23 -10 50 0 28 5 50 10 50 6 0 10 -22 10 -50z
m33 18 c-6 -33 -6 -33 15 -15 11 10 28 17 38 15 24 -4 31 -29 7 -26 -10 2 -19
-1 -20 -7 -2 -5 4 -10 12 -10 20 0 20 -19 0 -23 -9 -2 -25 4 -36 14 -18 16
-19 16 -13 1 4 -12 1 -17 -10 -17 -13 0 -16 11 -16 50 0 37 4 50 15 50 11 0
13 -8 8 -32z m-265 -35 c2 -25 -1 -33 -12 -33 -10 0 -16 9 -16 26 0 14 -4 23
-10 19 -5 -3 -10 -15 -10 -26 0 -10 -4 -19 -10 -19 -5 0 -10 11 -10 25 0 14
-4 25 -10 25 -5 0 -10 -11 -10 -25 0 -16 -6 -25 -15 -25 -10 0 -15 11 -15 35
l0 35 58 -2 c56 -3 57 -3 60 -35z m110 0 c2 -19 -1 -33 -7 -33 -6 0 -11 9 -11
19 0 11 -4 23 -10 26 -6 4 -10 -5 -10 -19 0 -16 -6 -26 -15 -26 -11 0 -15 11
-15 36 0 34 1 35 33 32 28 -3 32 -7 35 -35z m92 1 c0 -35 -1 -35 -37 -32 -27
2 -39 8 -41 21 -7 33 6 47 43 47 33 0 35 -2 35 -36z m215 25 c4 -5 4 -21 1
-35 -5 -20 -12 -25 -34 -22 -27 3 -39 25 -28 54 6 16 52 19 61 3z m-31 -107
c-5 -14 -4 -15 5 -2 5 8 13 11 18 7 4 -5 1 -12 -7 -17 -24 -15 -30 -12 -30 16
0 14 4 23 10 19 5 -3 7 -13 4 -23z m-375 -4 c2 -6 7 -5 12 3 9 16 89 21 89 6
0 -6 5 -5 13 1 17 13 97 8 107 -7 6 -10 8 -10 12 1 8 20 100 18 105 -2 4 -13
3 -13 -6 0 -6 8 -11 10 -11 4 0 -12 -4 -13 -70 -18 -30 -2 -51 2 -64 13 -18
15 -19 15 -13 0 5 -14 -1 -16 -36 -13 -23 2 -52 4 -64 4 -13 0 -23 6 -23 13 0
8 -4 7 -10 -3 -5 -8 -10 -11 -10 -7 0 5 -6 5 -12 0 -17 -10 -69 -11 -90 0 -10
4 -18 4 -18 -1 0 -16 -28 -9 -33 8 -4 14 4 16 57 13 34 -2 63 -9 65 -15z"/>
<path d="M642 2133 c2 -23 7 -28 28 -25 49 5 48 52 -2 52 -26 0 -29 -3 -26
-27z"/>
<path d="M900 2135 c0 -21 5 -25 29 -25 29 0 42 14 34 38 -3 6 -18 12 -34 12
-24 0 -29 -4 -29 -25z"/>
<path d="M355 1750 c-3 -5 -1 -10 4 -10 6 0 11 5 11 10 0 6 -2 10 -4 10 -3 0
-8 -4 -11 -10z"/>
<path d="M370 1680 c0 -6 7 -10 15 -10 8 0 15 2 15 4 0 2 -7 6 -15 10 -8 3
-15 1 -15 -4z"/>
<path d="M776 1470 c-18 -6 -18 -7 4 -13 28 -7 32 -6 22 9 -4 6 -16 8 -26 4z"/>
<path d="M778 1363 c6 -2 18 -2 25 0 6 3 1 5 -13 5 -14 0 -19 -2 -12 -5z"/>
<path d="M808 1343 c7 -3 16 -2 19 1 4 3 -2 6 -13 5 -11 0 -14 -3 -6 -6z"/>
<path d="M1060 1533 c0 -6 8 -17 18 -24 16 -13 16 -13 2 6 -8 11 -16 22 -17
24 -2 2 -3 0 -3 -6z"/>
<path d="M1048 1383 c6 -2 18 -2 25 0 6 3 1 5 -13 5 -14 0 -19 -2 -12 -5z"/>
<path d="M765 1170 c3 -5 11 -10 16 -10 6 0 7 5 4 10 -3 6 -11 10 -16 10 -6 0
-7 -4 -4 -10z"/>
<path d="M768 1143 c7 -3 16 -2 19 1 4 3 -2 6 -13 5 -11 0 -14 -3 -6 -6z"/>
<path d="M766 1117 c5 -12 0 -23 -15 -33 -11 -8 -21 -21 -21 -27 0 -7 5 -4 11
6 6 9 14 15 20 12 5 -4 9 -1 9 4 0 6 12 12 28 12 20 1 22 3 7 6 -11 3 -25 13
-32 22 -12 14 -12 14 -7 -2z"/>
<path d="M750 1051 c0 -6 4 -13 10 -16 6 -3 7 1 4 9 -7 18 -14 21 -14 7z"/>
<path d="M382 519 c2 -7 10 -15 17 -17 8 -3 12 1 9 9 -2 7 -10 15 -17 17 -8 3
-12 -1 -9 -9z"/>
<path d="M1388 353 c7 -3 16 -2 19 1 4 3 -2 6 -13 5 -11 0 -14 -3 -6 -6z"/>
<path d="M1418 333 c6 -2 18 -2 25 0 6 3 1 5 -13 5 -14 0 -19 -2 -12 -5z"/>
<path d="M1368 323 c7 -3 16 -2 19 1 4 3 -2 6 -13 5 -11 0 -14 -3 -6 -6z"/>
<path d="M1417 254 c-8 -8 1 -24 14 -24 5 0 9 7 9 15 0 15 -12 20 -23 9z"/>
<path d="M1648 253 c7 -3 16 -2 19 1 4 3 -2 6 -13 5 -11 0 -14 -3 -6 -6z"/>
<path d="M1110 619 c-12 -9 -12 -10 4 -5 10 4 24 2 31 -4 9 -8 14 -6 19 5 7
18 -30 21 -54 4z"/>
<path d="M980 560 c8 -5 20 -10 25 -10 6 0 3 5 -5 10 -8 5 -19 10 -25 10 -5 0
-3 -5 5 -10z"/>
<path d="M1025 350 c-3 -5 -1 -10 4 -10 6 0 11 5 11 10 0 6 -2 10 -4 10 -3 0
-8 -4 -11 -10z"/>
</g>
</svg>
